# xmcd
#
# Track frame offsets:
#	150
#	25960
#	42116
#	63749
#	83672
#	105096
#	127895
#	137511
#	155713
#	173964
#	191828
#
# Disc length: 2935 seconds
# Revision: 1
# Processed by: cddbd v1.5.2PL0 Copyright (c) Steve Scherf et al.
# Submitted via: dBpowerAMP V12.0
#
DISCID=8b0b750b
DTITLE=Memphis Gold - Pickin' in High Cotton
DYEAR=2011
DGENRE=Blues
TTITLE0=How You Gonna Play The Blues
TTITLE1=Biscuit Boogie
TTITLE2=Don't Take My Blues Away
TTITLE3=Pickin' In High Cotton
TTITLE4=Back Po'ch Tennessee
TTITLE5=Homeless Blues
TTITLE6=Mississippi Flatlands
TTITLE7=John Brown
TTITLE8=Ice Cream Man
TTITLE9=Plow My Mule
TTITLE10=Standin' By The Highway
EXTD=
EXTT0=
EXTT1=
EXTT2=
EXTT3=
EXTT4=
EXTT5=
EXTT6=
EXTT7=
EXTT8=
EXTT9=
EXTT10=
PLAYORDER=
